# xmcd
#
# Track frame offsets: 
#        150
#        10458
#        25334
#        40391
#        62372
#        80046
#        100721
#        120536
#        132354
#        147927
#        162419
#        177134
#        193795
#        207325
#        223889
#        239766
#        255284
#        275949
#        294590
#        317787
#        346934
#
# Disc length: 4719 seconds
#
# Revision: 2
# Processed by: cddbd v1.5.2PL0 Copyright (c) Steve Scherf et al.
# Submitted via: ExactAudioCopyFreeDBPlugin 1.0
#
DISCID=47126d15
DTITLE=Terence Chill - Der Antiheld
DYEAR=2005
DGENRE=Rap
TTITLE0=Intro
TTITLE1=Guten Morgen
TTITLE2=Was?
TTITLE3=Heiss diskutiert
TTITLE4=Man sagt...
TTITLE5=Bescheidenheit
TTITLE6=Was willst du von mir?
TTITLE7=Konsequenzen
TTITLE8=Ich würd gern... feat. TomTom
TTITLE9=Karrieren feat. Neno
TTITLE10=AKA feat. Dike
TTITLE11=1, 2, 3, 4
TTITLE12=Ungeeignet feat. Paul
TTITLE13=Hurt
TTITLE14=Schandfleck
TTITLE15=Anti
TTITLE16=Geht ab, hängt ab feat. Os
TTITLE17=Möchtegern
TTITLE18=Rauche feat. Beef
TTITLE19=Schnorrer feat. Lak Spencer
TTITLE20=Kiffen macht.............
EXTD=YEAR: 2005
EXTT0=
EXTT1=
EXTT2=
EXTT3=
EXTT4=
EXTT5=
EXTT6=
EXTT7=
EXTT8=
EXTT9=
EXTT10=
EXTT11=
EXTT12=
EXTT13=
EXTT14=
EXTT15=
EXTT16=
EXTT17=
EXTT18=
EXTT19=
EXTT20=
PLAYORDER=
